<?xml version="1.0" standalone="no"?>

<svg version="1.1" id="Capa_1" xmlns="http://www.w3.org/2000/svg" xmlns:xlink="http://www.w3.org/1999/xlink" x="0px" y="0px"
	 viewBox="0 0 50 50" style="enable-background:new 0 0 50 50;" xml:space="preserve" class="svgLogo">

<g transform="translate(0.000000,500.000000) scale(0.100000,-0.100000)"
fill="#000000" stroke="none">
<path d="M1844 3681 c-62 -16 -127 -55 -179 -106 -65 -65 -101 -150 -117 -278
-23 -186 35 -340 185 -490 l89 -90 -6 -46 c-3 -25 -22 -106 -42 -179 -20 -73
-34 -135 -32 -137 2 -3 62 8 134 22 114 24 151 27 329 28 217 0 286 -10 455
-65 47 -15 86 -27 88 -25 2 1 -35 21 -81 43 -221 105 -479 151 -701 123 -54
-7 -99 -11 -101 -9 -2 2 1 26 7 55 l10 51 62 12 c96 18 341 24 426 11 96 -15
266 -72 350 -117 36 -19 54 -26 40 -14 -48 38 -237 129 -321 153 -122 36 -255
51 -381 43 -59 -3 -120 -9 -136 -12 l-29 -6 -7 89 c-9 116 -32 248 -56 320
-14 40 -18 47 -15 23 3 -19 8 -84 11 -145 l5 -110 -49 53 c-99 107 -138 215
-130 366 12 204 111 317 294 333 109 9 273 -45 347 -115 l30 -27 -13 25 c-27
51 -121 128 -213 175 -77 39 -105 48 -158 51 -35 2 -78 0 -95 -5z"/>
<path d="M2880 3545 c-95 -19 -206 -63 -375 -149 -178 -90 -261 -120 -335
-120 -68 -1 -142 33 -218 100 -29 25 -55 44 -57 42 -13 -13 61 -132 107 -173
126 -113 268 -99 611 61 205 96 284 117 437 118 118 1 128 -1 182 -27 120 -59
173 -170 166 -345 -3 -82 -8 -107 -32 -155 -50 -103 -179 -206 -294 -237 -24
-6 -50 -14 -59 -17 -14 -6 -15 1 -10 45 8 65 -12 135 -49 174 -54 56 -123 58
-429 16 -233 -32 -380 -10 -529 78 -77 45 -53 17 33 -40 162 -107 229 -120
573 -110 295 8 289 9 315 -55 21 -49 27 -219 14 -355 -6 -65 -10 -120 -8 -123
2 -2 17 58 34 134 l29 137 83 17 c147 32 273 107 356 212 142 180 131 510 -21
661 -89 87 -204 126 -369 125 -49 -1 -119 -7 -155 -14z"/>
<path d="M2547 2104 c-4 -4 -7 -49 -7 -101 l0 -93 -20 20 c-32 32 -101 27
-144 -10 -43 -39 -60 -86 -54 -158 4 -47 10 -60 37 -84 34 -30 86 -37 137 -18
19 8 30 7 41 -1 31 -26 36 5 37 227 1 206 -3 241 -27 218z m-37 -236 c27 -29
28 -117 3 -141 -46 -41 -122 -28 -144 24 -15 38 2 101 34 124 32 22 82 19 107
-7z"/>
<path d="M3745 2084 c-19 -19 -19 -38 0 -54 23 -19 45 -4 45 29 0 34 -23 47
-45 25z"/>
<path d="M4160 2085 c-17 -20 -8 -59 14 -63 36 -7 50 50 17 67 -14 8 -22 7
-31 -4z"/>
<path d="M3205 2029 c-63 -37 -98 -94 -115 -190 -15 -82 0 -133 49 -166 69
-46 231 -21 231 36 0 28 -16 35 -42 17 -15 -11 -45 -16 -86 -16 -54 0 -66 4
-89 26 -23 23 -25 31 -20 85 9 99 69 173 124 153 25 -9 32 -20 49 -83 8 -26
34 10 34 45 0 65 -84 122 -135 93z"/>
<path d="M125 1998 c-3 -18 -5 -103 -3 -188 3 -147 4 -155 23 -155 18 0 20 8
23 78 l3 77 79 0 80 0 0 -80 c0 -74 2 -80 20 -80 20 0 20 5 18 187 -3 170 -5
188 -20 191 -16 3 -18 -6 -18 -77 l0 -81 -80 0 -80 0 0 64 c0 35 -3 71 -6 80
-10 27 -33 18 -39 -16z"/>
<path d="M1303 1944 c-69 -34 -103 -153 -66 -223 30 -57 65 -76 134 -74 74 3
99 16 99 49 0 24 -2 26 -32 19 -18 -4 -57 -8 -85 -9 -42 -1 -57 3 -75 22 -22
22 -23 23 -3 28 11 3 58 20 105 37 93 35 104 50 79 108 -22 55 -93 74 -156 43z
m113 -58 c10 -8 17 -17 14 -19 -9 -9 -162 -68 -167 -64 -2 2 1 16 6 29 22 57
102 87 147 54z"/>
<path d="M2723 1944 c-69 -34 -103 -153 -66 -223 30 -57 65 -76 134 -74 74 3
99 16 99 49 0 24 -2 26 -32 19 -18 -4 -57 -8 -85 -9 -42 -1 -57 3 -75 22 -22
22 -23 23 -3 28 11 3 58 20 105 37 93 35 104 50 79 108 -22 55 -93 74 -156 43z
m113 -58 c10 -8 17 -17 14 -19 -9 -9 -162 -68 -167 -64 -2 2 1 16 6 29 22 57
102 87 147 54z"/>
<path d="M3902 1940 c-32 -19 -62 -71 -62 -105 0 -30 46 -63 106 -76 79 -17
96 -30 58 -46 -41 -17 -84 -16 -105 3 -22 20 -39 11 -39 -21 0 -38 40 -59 98
-51 55 7 93 32 107 71 8 23 6 30 -17 50 -15 13 -50 28 -79 34 -60 13 -79 26
-79 52 0 22 47 49 85 49 18 0 28 -7 35 -25 12 -32 26 -32 35 2 16 67 -73 106
-143 63z"/>
<path d="M4639 1937 c-45 -30 -69 -80 -69 -145 0 -100 46 -147 144 -144 60 1
106 21 106 47 0 24 -19 27 -71 14 -42 -11 -57 -11 -92 1 -23 8 -42 21 -42 29
0 8 37 27 95 48 52 19 97 36 99 39 3 2 4 21 4 42 -2 80 -100 119 -174 69z
m112 -47 c10 -6 19 -15 19 -20 0 -13 -154 -70 -159 -58 -6 17 22 59 49 73 30
17 64 19 91 5z"/>
<path d="M512 1937 c-75 -42 -90 -171 -27 -245 92 -110 234 -13 210 144 -10
69 -57 114 -116 114 -24 -1 -54 -6 -67 -13z m122 -69 c38 -59 27 -127 -25
-153 -37 -20 -51 -19 -83 6 -49 38 -50 121 -3 154 34 24 94 19 111 -7z"/>
<path d="M827 1930 c-22 -18 -27 -19 -27 -6 0 29 -27 16 -34 -15 -9 -47 -7
-232 3 -248 5 -8 16 -11 25 -8 13 5 16 24 16 111 0 94 2 106 19 116 27 14 44
13 67 -4 16 -12 20 -30 24 -118 5 -95 7 -103 25 -103 18 0 20 8 23 92 3 86 5
94 29 113 32 25 64 26 94 1 21 -16 24 -28 23 -78 0 -32 -2 -73 -4 -91 -3 -36
17 -59 35 -41 15 15 19 166 6 211 -13 43 -58 78 -101 78 -26 0 -66 -22 -87
-50 -11 -13 -12 -13 -13 1 0 22 -31 48 -66 55 -21 4 -37 0 -57 -16z"/>
<path d="M1601 1934 c-18 -13 -25 -14 -31 -4 -4 7 -13 9 -19 6 -7 -5 -11 -55
-11 -147 0 -132 1 -139 20 -139 23 0 23 -3 20 122 -2 88 0 97 18 107 31 17 57
13 78 -10 16 -18 19 -37 19 -118 0 -92 1 -96 23 -99 21 -3 22 -1 22 88 0 83 2
93 25 115 33 34 77 33 105 -2 20 -25 22 -36 16 -109 -5 -64 -3 -84 8 -93 24
-20 38 22 39 113 1 116 -26 163 -101 173 -31 4 -44 0 -70 -22 l-32 -26 -22 25
c-30 34 -76 42 -107 20z"/>
<path d="M2059 1923 c-66 -56 -91 -173 -48 -227 47 -60 114 -69 159 -20 29 30
34 30 48 -1 20 -44 82 -28 82 22 0 23 -14 31 -25 13 -3 -5 -13 -6 -21 -3 -13
5 -15 17 -9 72 7 75 -2 110 -41 146 -38 36 -101 34 -145 -2z m130 -57 c22 -23
23 -28 11 -75 -18 -76 -61 -103 -124 -77 -58 24 -61 92 -6 147 37 38 87 39
119 5z"/>
<path d="M3431 1919 c-14 -40 -14 -152 -1 -201 12 -43 52 -78 87 -78 14 0 37
13 53 29 l29 28 6 -24 c4 -16 12 -23 23 -21 15 3 17 21 20 151 2 138 1 148
-15 145 -15 -3 -18 -16 -21 -92 -3 -102 -22 -140 -73 -151 -25 -6 -36 -2 -53
14 -19 20 -21 31 -19 126 2 83 0 105 -11 105 -8 0 -19 -14 -25 -31z"/>
<path d="M3741 1931 c-6 -11 -12 -76 -13 -146 -2 -101 0 -128 12 -135 29 -18
35 7 34 151 -2 142 -10 174 -33 130z"/>
<path d="M4155 1933 c-5 -10 -10 -74 -13 -143 -3 -106 -2 -128 11 -139 9 -7
20 -10 26 -7 5 3 9 72 9 156 1 118 -2 150 -13 150 -7 0 -16 -8 -20 -17z"/>
<path d="M4265 1928 c-3 -13 -4 -79 -3 -148 3 -122 4 -125 26 -128 l23 -4 -7
94 -6 94 32 27 c43 37 93 37 117 0 14 -21 18 -48 18 -122 0 -66 4 -95 12 -98
20 -7 33 42 33 120 0 86 -12 132 -42 164 -36 39 -110 29 -150 -21 -17 -21 -18
-21 -18 12 0 38 -26 45 -35 10z"/>
</g>
</svg>
